<?xml version="1.0" encoding="UTF-8"?>
<svg width="858px" height="759px" viewBox="0 0 858 759" version="1.1" xmlns="http://www.w3.org/2000/svg" xmlns:xlink="http://www.w3.org/1999/xlink">
    <title>Artboard</title>
    <g id="Artboard" stroke="none" stroke-width="1" fill="none" fill-rule="evenodd">
        <g id="customer-onboarding" transform="translate(152.000000, 0.000000)" fill-rule="nonzero">
            <path d="M526.907982,632.202805 C542.956043,604.706002 550.260892,550.702808 548.822529,470.193224 C548.822529,470.193224 531.642766,393.483173 518.7715,311.063673 C505.900235,228.644174 447.979637,81.8344531 447.979637,81.8344531 L447.979637,4.56617587 C447.979637,4.56617587 381.049067,-21.1899125 375.900573,49.6393366 C370.752079,120.468586 390.058953,211.902773 390.058953,211.902773 C390.058953,211.902773 409.365827,327.805183 365.603536,357.424688 L206,618.848976 C206,618.848976 299.240188,738.178997 447.772118,728.43406 L456.294442,635.857157 C487.322075,660.917725 510.859922,659.699608 526.907982,632.202805 Z" id="Path" fill="#FFB8B8"></path>
            <path d="M51,249 L46.6434795,249 C7.39215847,249 -14.6715418,295.649349 11.1200113,325.435126 C19.4212307,335.021912 32.0386283,341.659139 51,342 L51,249 Z" id="Path" fill="#FFB8B8"></path>
            <path d="M51,341 L46.6434795,341 C7.39215847,341 -14.6715418,387.649349 11.1200113,417.435126 C19.4212307,427.021912 32.0386283,433.659139 51,434 L51,341 Z" id="Path" fill="#FFB8B8"></path>
            <path d="M51,434 L46.6434795,434 C7.39215847,434 -14.6715418,480.649349 11.1200113,510.435126 C19.4212307,520.021912 32.0386283,526.659139 51,527 L51,434 Z" id="Path" fill="#FFB8B8"></path>
            <path d="M51,527 L46.6434795,527 C7.39215847,527 -14.6715418,573.649349 11.1200113,603.435126 C19.4212307,613.021912 32.0386283,619.659139 51,620 L51,527 Z" id="Path" fill="#FFB8B8"></path>
            <path d="M393,226.870897 L389.165287,226.870897 L389.165287,121.807725 C389.165287,105.680488 382.759517,90.2137834 371.357176,78.8101186 C359.954836,67.4064539 344.489948,61 328.364623,61 L105.800664,61 C89.6753386,61 74.2104515,67.4064539 62.808111,78.8101186 C51.4057705,90.2137834 45,105.680488 45,121.807725 L45,698.192275 C45,714.319512 51.4057705,729.786217 62.808111,741.189881 C74.2104515,752.593546 89.6753386,759 105.800664,759 L328.364599,759 C344.489924,759 359.954811,752.593546 371.357152,741.189881 C382.759492,729.786217 389.165263,714.319512 389.165263,698.192275 L389.165263,301.65661 L393,301.65661 L393,226.870897 Z" id="Path" fill="#3F3D56"></path>
            <path d="M376,122.388247 L376,697.611631 C375.979797,711.234261 369.871911,724.133332 359.350429,732.77339 C358.201185,733.716283 357.002913,734.597653 355.760636,735.413805 C348.327306,740.373519 339.590871,743.013664 330.657606,743 L107.342394,743 C103.722341,743 100.114827,742.574005 96.5986946,741.711949 C76.2884889,736.753987 62,718.538204 62,697.611631 L62,122.388247 C62,97.3219606 82.3014087,77 107.342345,77 L134.439703,77 C131.73035,83.648071 132.505308,91.210077 136.506635,97.1690417 C140.507962,103.128006 147.210434,106.701741 154.383166,106.700745 L281.699654,106.700745 C288.869553,106.692953 295.566597,103.11813 299.568124,97.162713 C303.569651,91.207296 304.352178,83.650377 301.655994,77 L330.657606,77 C355.698562,77 376,97.3219416 376,122.388247 Z" id="Path" fill="#00A2FF"></path>
            <path d="M172,510.162162 C172,510.162162 193.95154,570.972972 176.878115,605.027028 C159.804689,639.081084 203.70777,678 203.70777,678 C203.70777,678 318.343586,619.621632 303.709254,590.432436 C289.074922,561.24324 264.684264,522.3243 269.562391,498 L172,510.162162 Z" id="Path" fill="#FFB8B8"></path>
            <circle id="Oval" fill="#FFB8B8" cx="215" cy="455" r="78"></circle>
            <path d="M366,728.92324 C363.950163,731.545415 361.619013,733.93384 359.048533,736.045499 C357.898737,736.990073 356.699889,737.873016 355.457015,738.690624 C348.26101,743.490409 339.636211,745 330.341921,745 L133,745 L136.411357,650.061687 L158.346797,601.211832 C163.271246,605.083168 168.541422,608.49103 174.090366,611.392119 C175.403425,612.101752 176.793731,612.811506 178.248376,613.50819 C198.793498,623.456225 232.37902,632.20425 264.934631,607.84386 C275.1815,600.179634 285.325382,589.225213 294.94142,574 L355.727427,608.540665 L358.91989,645.958609 L366,728.92324 Z" id="Path" fill="#FFFFFF"></path>
            <path d="M183,565 L179.945169,596.848815 L178.333969,613.679783 L175.923588,638.73973 L165.624751,746 L106.91257,746 C103.286083,746.00647 99.6721565,745.57473 96.1497748,744.71414 L73,637.929687 L73.6702858,637.49257 L183,565 Z" id="Path" fill="#2F2E41"></path>
            <path d="M376,586.33273 L376,700.531907 C375.979759,714.178471 369.860286,727.100205 359.318844,735.755443 C358.16742,736.699992 356.966875,737.582911 355.722241,738.400497 C348.27481,743.368924 339.521802,746.013708 330.571591,746 L252,746 C253.71455,709.911974 256.743932,674.68845 260.289005,644.006502 C261.810226,630.936371 263.421619,618.692 265.071652,607.557224 C270.382793,571.662737 276.080665,547.290169 280.167217,544 L307.18702,561.844039 L376,586.33273 Z" id="Path" fill="#2F2E41"></path>
            <path d="M130,725.463557 L127.174784,746 L107.670291,746 C104.024059,746.0065 100.390455,745.572807 96.8488947,744.708327 C76.3918269,739.736424 61.9973796,721.469446 62,700.484052 L62,696.350925 L71.1236679,637.441139 L74.2470224,637.002046 L88.2953941,635 L130,725.463557 Z" id="Path" fill="#2F2E41"></path>
            <path d="M376,602 L376,701.180645 C375.979894,714.809466 369.901259,727.7144 359.430164,736.358385 C358.286424,737.301706 357.09389,738.183477 355.857562,739 L344,687.070875 L359.30215,646.391076 L376,602 Z" id="Path" fill="#2F2E41"></path>
            <path d="M289.27621,384.813632 C277.467701,365.606718 258.983845,351.453287 237.382187,345.077419 L221.516063,357.790824 L227.684521,342.96208 C222.497142,342.169425 217.247009,341.865495 212.002998,342.054277 L197.727639,360.43828 L203.636043,342.683979 C178.969307,345.833837 155.518978,359.291483 141.304233,379.820895 C123.135064,406.061564 120.069253,442.554059 137.939324,469 C142.844918,453.900263 148.798792,439.731609 153.704386,424.631762 C154.836253,425.116527 159.125907,425.086103 165.327593,424.688481 L171.296002,410.739902 L172.963147,424.098521 C191.461742,422.484106 218.899724,418.940157 236.437139,415.692897 L234.731925,405.44499 L244.934494,413.960988 C250.307619,412.721942 253.497671,411.598583 253.234068,410.739902 C266.276949,431.800771 279.200443,445.252763 292.242996,466.313486 C297.194084,436.606545 305.934399,411.91319 289.27621,384.813632 Z" id="Path" fill="#2F2E41"></path>
            <ellipse id="Oval" fill="#FFB8B8" cx="284.5" cy="452.5" rx="5.5" ry="10.5"></ellipse>
            <ellipse id="Oval" fill="#FFB8B8" cx="457" cy="510.5" rx="97" ry="217.5"></ellipse>
            <path d="M107.500385,239 C97.186746,239 87.8886521,232.665403 83.9417912,222.950009 C79.9949303,213.234616 82.1765694,202.051713 89.4694133,194.615872 C96.7622571,187.180032 107.730104,184.955615 117.258663,188.979866 C126.787222,193.004116 133,202.484525 133,213.000392 C132.983897,227.352773 121.576758,238.983581 107.500385,239 Z M107.500385,189.600735 C94.8256356,189.600735 84.5507214,200.077119 84.5507214,213.000392 C84.5507214,225.923666 94.8256356,236.400049 107.500385,236.400049 C120.175134,236.400049 130.450048,225.923666 130.450048,213.000392 C130.435779,200.08315 120.169219,189.615285 107.500385,189.600735 Z" id="Shape" fill="#000000" opacity="0.2"></path>
            <circle id="Oval" fill="#000000" opacity="0.2" cx="97" cy="207" r="4"></circle>
            <circle id="Oval" fill="#000000" opacity="0.2" cx="116" cy="207" r="4"></circle>
            <path d="M115.705882,222 L96.2941184,222 C95.5793965,222 95,221.328427 95,220.5 C95,219.671573 95.5793965,219 96.2941184,219 L115.705882,219 C116.420603,219 117,219.671573 117,220.5 C117,221.328427 116.420603,222 115.705882,222 L115.705882,222 Z" id="Path" fill="#000000" opacity="0.2"></path>
            <path d="M331.500385,239 C321.186746,239 311.888652,232.665403 307.941791,222.950009 C303.99493,213.234616 306.176569,202.051713 313.469413,194.615872 C320.762257,187.180032 331.730104,184.955615 341.258663,188.979866 C350.787222,193.004116 357,202.484525 357,213.000392 C356.984116,227.352865 345.576849,238.983804 331.500385,239 Z M331.500385,189.600735 C322.218111,189.600735 313.849828,195.301871 310.297652,204.045723 C306.745476,212.789575 308.708949,222.854186 315.272506,229.546444 C321.836063,236.238701 331.707123,238.240679 340.282826,234.618857 C348.858529,230.997036 354.450036,222.464671 354.450036,213.000392 C354.435548,200.083247 344.169123,189.615514 331.500385,189.600735 Z" id="Shape" fill="#000000" opacity="0.2"></path>
            <circle id="Oval" fill="#000000" opacity="0.2" cx="321" cy="207" r="4"></circle>
            <circle id="Oval" fill="#000000" opacity="0.2" cx="340" cy="207" r="4"></circle>
            <path d="M339.704308,224.998581 C339.478094,224.998528 339.255864,224.943253 339.059866,224.838289 C333.529637,221.579689 326.472433,221.579689 320.942204,224.838289 C320.541469,225.053789 320.047376,225.053911 319.646517,224.838611 C319.245659,224.62331 318.999119,224.225395 319,223.795136 C319.000886,223.364876 319.249059,222.967838 319.650799,222.753961 C325.985286,219.082013 334.016784,219.082013 340.351271,222.753961 C340.85945,223.02568 341.107516,223.580982 340.955825,224.107271 C340.804133,224.63356 340.2906,224.99929 339.704308,224.998581 L339.704308,224.998581 Z" id="Path" fill="#000000" opacity="0.2"></path>
            <path d="M220.5,266 C191.505051,266 168,242.494949 168,213.5 C168,184.505051 191.505051,161 220.5,161 C249.494949,161 273,184.505051 273,213.5 C272.966849,242.481207 249.481207,265.966849 220.5,266 L220.5,266 Z M220.5,166.25 C194.404546,166.25 173.25,187.404546 173.25,213.5 C173.25,239.595454 194.404546,260.75 220.5,260.75 C246.595454,260.75 267.75,239.595454 267.75,213.5 C267.720609,187.416734 246.583266,166.279402 220.5,166.25 L220.5,166.25 Z" id="Shape" fill="#FFFFFF"></path>
            <circle id="Oval" fill="#FFFFFF" cx="199" cy="200" r="8"></circle>
            <circle id="Oval" fill="#FFFFFF" cx="239" cy="200" r="8"></circle>
            <path d="M220.322042,239 C213.358934,239 205.977457,236.543525 198.177611,231.630575 C196.980343,230.872994 196.639893,229.314781 197.416857,228.148661 C198.193822,226.982541 199.794515,226.649296 200.993696,227.404006 C214.713884,236.060105 226.404173,236.122838 236.740756,227.595888 C237.831315,226.698481 239.462686,226.830384 240.386125,227.890631 C241.309565,228.950878 241.176013,230.538697 240.087699,231.438681 C233.980291,236.47956 227.373621,239 220.322042,239 Z" id="Path" fill="#FFFFFF"></path>
            <polygon id="Path" fill="#FFFFFF" points="307 300 273 300 273 294.770168 301.769137 294.770168 301.769137 266 307 266"></polygon>
            <polygon id="Path" fill="#FFFFFF" points="139.230863 161 134 161 134 127 168 127 168 132.230863 139.230863 132.230863"></polygon>
        </g>
    </g>
</svg>